# xmcd
#
# Track frame offsets:
#	150
#	23488
#	51355
#	59668
#	80220
#	103630
#	131760
#	164838
#	193633
#	209185
#
# Disc length: 3105 seconds
#
# Revision: 1
# Processed by: cddbd v1.5.2PL0 Copyright (c) Steve Scherf et al.
# Submitted via: audiograbber 1.83.01
#
DISCID=9d0c1f0a
DTITLE=Detlef Leiding - Self-Portrait
DYEAR=1994
DGENRE=Blues
TTITLE0=Singing the Sound
TTITLE1=Gi'me your Soul
TTITLE2=Keytarero
TTITLE3=A little bit more than a Blues
TTITLE4=CMF
TTITLE5=Lookin' forward
TTITLE6=Arrivial of the Caballeros
TTITLE7=Cubasilia
TTITLE8=Boogiemäleon
TTITLE9=Lookin' back
EXTD=Including: Nippi Noya Percusion
EXTT0=
EXTT1=
EXTT2=
EXTT3=
EXTT4=
EXTT5=
EXTT6=
EXTT7=
EXTT8=
EXTT9=
PLAYORDER=
